<?xml version="1.0" standalone="no"?>
<!DOCTYPE svg PUBLIC "-//W3C//DTD SVG 20010904//EN"
 "http://www.w3.org/TR/2001/REC-SVG-20010904/DTD/svg10.dtd">
<svg version="1.0" xmlns="http://www.w3.org/2000/svg"
 width="525.000000pt" height="194.000000pt" viewBox="0 0 525.000000 194.000000"
 preserveAspectRatio="xMidYMid meet">

<g transform="translate(0.000000,194.000000) scale(0.100000,-0.100000)"
fill="#000000" stroke="none">
<path d="M1113 1541 c-49 -23 -87 -75 -109 -148 -15 -51 -16 -52 -56 -55 -52
-4 -65 -28 -14 -28 19 0 37 -4 40 -8 6 -10 -99 -454 -116 -490 -16 -33 -64
-46 -54 -14 8 24 -16 46 -43 37 -27 -8 -34 -34 -16 -61 12 -19 24 -24 59 -24
92 0 128 62 200 349 l51 206 78 3 c42 2 77 0 77 -4 0 -28 -114 -483 -125 -501
-21 -31 -52 -33 -47 -3 4 23 -23 43 -48 35 -14 -4 -20 -15 -20 -34 0 -38 17
-51 69 -51 91 0 136 84 207 390 19 85 38 158 40 162 3 5 37 8 75 8 54 0 71 -4
76 -16 3 -8 -11 -77 -31 -153 -20 -76 -36 -152 -36 -169 0 -68 81 -59 133 15
32 45 23 67 -10 24 -24 -31 -53 -42 -53 -20 0 9 58 233 86 332 5 15 -5 17
-115 17 l-120 0 18 64 c22 79 43 114 75 122 40 10 61 1 61 -25 0 -48 64 -54
73 -7 9 46 -66 75 -140 55 -75 -20 -117 -66 -144 -156 l-15 -53 -80 0 c-72 0
-80 2 -75 18 2 9 12 43 21 75 9 32 25 67 36 78 24 24 55 21 51 -5 -7 -39 43
-62 68 -31 20 24 4 62 -31 74 -42 14 -47 14 -96 -8z"/>
<path d="M4303 1547 c-62 -10 -86 -27 -39 -27 14 0 27 -4 30 -9 3 -5 -18 -98
-48 -207 -98 -365 -99 -366 -61 -380 39 -15 116 37 146 99 5 12 -7 3 -28 -20
-21 -24 -47 -43 -57 -43 -16 0 -18 5 -12 39 5 31 114 448 142 544 3 9 2 16 -3
15 -4 0 -36 -6 -70 -11z"/>
<path d="M575 1522 c-104 -43 -184 -121 -237 -230 -29 -58 -33 -76 -33 -147 0
-94 20 -141 79 -189 33 -27 47 -31 111 -34 67 -4 81 -1 140 27 134 62 234 204
243 345 7 115 -26 184 -109 226 -48 25 -138 26 -194 2z m162 -27 c71 -47 69
-204 -6 -368 -98 -217 -306 -254 -337 -61 -13 87 43 269 113 360 64 83 163
113 230 69z"/>
<path d="M2623 1511 c-40 -29 -63 -73 -63 -124 0 -37 30 -85 109 -171 45 -48
84 -99 87 -113 24 -95 -62 -182 -151 -153 -49 16 -92 70 -101 125 -3 25 -8 44
-11 42 -2 -2 -8 -33 -13 -68 -6 -35 -13 -80 -16 -99 l-6 -35 21 19 c21 19 24
19 75 3 77 -25 155 -22 196 6 45 30 70 65 81 116 16 70 -2 112 -85 199 -93 98
-106 119 -106 162 0 46 21 76 65 90 69 23 145 -27 145 -96 0 -55 18 -48 30 13
6 32 13 70 16 86 6 27 -8 37 -22 16 -4 -7 -20 -8 -43 -4 -20 3 -65 9 -101 11
-60 5 -68 3 -107 -25z"/>
<path d="M1735 1309 c-158 -83 -218 -297 -103 -369 47 -30 122 -22 181 19 25
17 47 37 50 46 9 22 -1 19 -39 -15 -102 -89 -202 -20 -173 119 24 121 94 204
172 205 l42 1 0 -45 c0 -35 4 -45 18 -48 46 -9 63 50 24 86 -32 30 -116 30
-172 1z"/>
<path d="M2086 1308 c-92 -48 -176 -172 -176 -259 0 -72 56 -129 127 -129 32
0 116 39 152 70 36 31 17 36 -23 5 -50 -38 -112 -44 -148 -15 -24 18 -28 29
-28 71 0 45 2 49 28 54 115 24 181 58 219 114 45 67 20 111 -63 111 -29 -1
-65 -9 -88 -22z m98 6 c37 -14 9 -96 -46 -137 -36 -26 -118 -61 -125 -53 -9 9
18 74 48 116 16 22 44 49 62 60 35 22 38 23 61 14z"/>
<path d="M2955 1315 c-38 -9 -43 -13 -22 -14 15 0 30 -7 33 -14 3 -8 -11 -74
-31 -148 -38 -147 -43 -190 -20 -209 42 -35 127 26 204 148 18 29 35 51 37 49
2 -2 -5 -41 -16 -87 -20 -78 -20 -83 -4 -101 9 -11 26 -19 37 -19 21 0 123 97
113 107 -3 3 -21 -12 -41 -33 -59 -63 -61 -37 -10 148 25 91 45 170 45 177 0
6 -13 11 -29 11 -27 0 -31 -5 -57 -72 -64 -169 -196 -331 -228 -280 -4 7 57
261 80 334 7 22 -16 23 -91 3z"/>
<path d="M3360 1323 l-35 -5 33 -13 c17 -8 32 -20 32 -27 0 -7 -14 -62 -30
-123 -16 -60 -46 -172 -67 -248 -31 -119 -40 -140 -60 -148 -13 -5 -23 -11
-23 -14 0 -3 42 -5 93 -5 89 1 91 1 59 15 -37 16 -37 14 -10 128 l12 47 48 -6
c95 -13 217 72 267 187 40 91 35 171 -12 204 -51 36 -148 9 -197 -53 l-21 -27
6 30 c3 17 8 38 11 48 6 18 -18 20 -106 10z m246 -37 c16 -12 19 -26 18 -80
-1 -52 -7 -78 -33 -130 -43 -88 -99 -136 -158 -136 -54 0 -61 14 -43 84 37
150 74 227 124 257 37 23 65 24 92 5z"/>
<path d="M3780 1323 l-35 -5 33 -14 c40 -16 44 8 -40 -299 -51 -188 -63 -223
-86 -242 l-27 -23 95 0 c91 1 94 1 63 15 -38 16 -38 15 -17 106 l16 69 48 -6
c150 -20 330 189 290 336 -13 49 -42 70 -98 70 -49 0 -75 -11 -114 -48 -38
-35 -36 -50 2 -19 56 48 113 47 131 -1 26 -68 -30 -224 -104 -287 -36 -31 -47
-36 -87 -33 l-45 3 1 45 c1 25 16 86 33 135 18 50 33 106 35 125 2 19 6 45 10
58 7 20 4 22 -31 20 -21 0 -54 -3 -73 -5z"/>
<path d="M4375 1322 l-30 -4 35 -12 c45 -16 69 -64 104 -214 39 -168 37 -181
-43 -264 -34 -37 -64 -48 -76 -28 -10 16 -52 12 -59 -6 -3 -8 -1 -24 4 -35 41
-75 198 83 338 341 82 151 90 230 23 230 -40 0 -47 -25 -16 -56 14 -14 25 -35
25 -47 0 -25 -59 -154 -92 -200 l-21 -30 -22 109 c-13 60 -33 135 -45 167 -21
56 -22 57 -58 56 -20 -1 -50 -4 -67 -7z"/>
<path d="M2495 540 c-3 -5 1 -10 10 -10 9 0 13 5 10 10 -3 6 -8 10 -10 10 -2
0 -7 -4 -10 -10z"/>
<path d="M3275 540 c-3 -5 1 -10 9 -10 9 0 16 5 16 10 0 6 -4 10 -9 10 -6 0
-13 -4 -16 -10z"/>
<path d="M2436 509 c-10 -50 -7 -177 4 -184 6 -4 10 33 10 104 0 61 -2 111 -4
111 -2 0 -6 -14 -10 -31z"/>
<path d="M3691 513 c-1 -12 -7 -24 -13 -27 -10 -5 -10 -7 0 -12 8 -4 12 -28
12 -68 0 -63 11 -86 40 -86 13 1 12 3 -2 14 -24 18 -26 136 -3 136 8 0 15 5
15 10 0 6 -6 10 -13 10 -8 0 -19 10 -25 23 l-11 22 0 -22z"/>
<path d="M1239 470 c-13 -10 -19 -19 -12 -20 6 0 15 5 18 10 9 15 61 12 75 -5
17 -21 4 -34 -39 -41 -21 -3 -44 -10 -51 -14 -17 -10 -16 -60 1 -71 19 -12 66
-11 74 1 5 8 11 7 21 -1 22 -18 20 124 -2 145 -21 22 -57 20 -85 -4z m91 -85
c0 -17 -35 -55 -51 -55 -20 0 -49 21 -49 35 0 19 29 34 68 35 22 0 32 -5 32
-15z"/>
<path d="M1469 460 c-4 -122 -3 -183 3 -193 4 -7 8 7 8 31 0 40 11 54 25 32
11 -18 61 -11 81 11 29 32 26 105 -5 130 -28 23 -54 24 -75 4 -13 -14 -16 -13
-25 2 -9 15 -11 12 -12 -17z m111 -9 c18 -35 12 -88 -12 -105 -30 -21 -44 -20
-68 4 -24 24 -26 77 -3 102 22 24 69 24 83 -1z"/>
<path d="M1668 479 c-10 -5 -18 -15 -18 -21 0 -7 5 -6 14 1 8 7 30 11 48 9 25
-2 34 -8 36 -24 3 -18 -4 -23 -35 -29 -54 -10 -73 -23 -73 -48 0 -43 45 -61
91 -37 13 7 19 7 19 0 0 -5 5 -10 10 -10 6 0 10 28 10 65 0 52 -4 69 -20 85
-22 22 -55 25 -82 9z m82 -98 c0 -29 -35 -54 -65 -47 -37 9 -35 53 3 62 15 3
32 7 37 9 16 4 25 -5 25 -24z"/>
<path d="M1822 375 c1 -66 3 -101 5 -77 4 40 15 53 28 32 10 -16 61 -11 78 8
56 62 -2 183 -70 143 -15 -9 -12 -10 19 -11 42 0 58 -19 58 -69 0 -33 -30 -71
-55 -71 -8 0 -25 10 -36 21 -17 17 -20 30 -17 63 3 22 1 50 -3 61 -4 11 -7
-33 -7 -100z"/>
<path d="M2015 465 c-32 -31 -34 -96 -5 -125 22 -22 79 -27 98 -8 21 21 13 27
-15 12 -16 -7 -33 -14 -39 -14 -17 0 -42 24 -49 48 -6 21 -4 22 59 22 60 0 66
2 66 20 0 27 -43 70 -70 70 -11 0 -32 -11 -45 -25z m85 -10 c22 -27 4 -45 -44
-45 -52 0 -61 8 -40 38 18 26 65 30 84 7z"/>
<path d="M2172 405 c1 -89 1 -89 7 -25 7 74 14 90 42 90 10 0 19 5 19 10 0 13
-6 13 -32 -1 -16 -9 -23 -8 -29 2 -5 8 -8 -23 -7 -76z"/>
<path d="M2289 471 c-31 -25 -34 -98 -5 -130 21 -23 75 -28 94 -9 22 22 13 27
-17 11 -27 -16 -30 -16 -55 0 -47 31 -31 127 21 127 15 0 35 -7 45 -17 16 -15
18 -15 18 0 0 37 -64 48 -101 18z"/>
<path d="M2504 405 c0 -49 1 -71 3 -48 2 23 2 64 0 90 -2 26 -3 8 -3 -42z"/>
<path d="M2562 375 c0 -66 3 -106 5 -90 2 17 7 37 10 45 3 8 5 38 4 66 -3 58
12 77 56 72 71 -8 65 -131 -6 -131 -16 0 -28 -4 -25 -9 3 -4 16 -8 30 -8 64 0
91 107 38 149 -32 25 -57 27 -74 6 -11 -13 -14 -13 -26 2 -11 15 -13 0 -12
-102z"/>
<path d="M2822 374 c1 -65 3 -100 5 -76 5 47 3 46 37 31 75 -35 133 75 71 136
-28 29 -57 32 -76 9 -12 -14 -14 -14 -26 2 -11 15 -13 -1 -11 -102z m108 81
c19 -23 15 -85 -8 -108 -52 -52 -120 38 -76 101 18 26 65 30 84 7z"/>
<path d="M3002 404 c1 -72 2 -78 5 -29 4 60 22 95 50 95 7 0 13 5 13 10 0 12
-10 13 -30 0 -9 -5 -19 -5 -27 2 -10 8 -13 -7 -11 -78z"/>
<path d="M3119 471 c-19 -15 -24 -29 -24 -64 0 -57 25 -87 71 -87 47 0 78 41
71 95 -9 68 -69 96 -118 56z m91 -20 c18 -35 12 -88 -12 -105 -30 -21 -44 -20
-68 4 -23 23 -26 70 -8 100 17 27 73 27 88 1z"/>
<path d="M3282 396 c-2 -76 -6 -104 -19 -118 -15 -17 -15 -18 1 -18 24 0 27
15 23 131 l-3 104 -2 -99z"/>
<path d="M3372 483 c-7 -3 -19 -18 -28 -35 -31 -60 4 -128 68 -128 25 0 64 27
54 37 -3 3 -12 -2 -21 -11 -9 -9 -24 -16 -33 -16 -27 0 -62 29 -62 51 0 17 7
19 60 19 57 0 60 1 60 25 0 46 -52 77 -98 58z m78 -33 c16 -30 4 -40 -45 -40
-49 0 -61 10 -45 40 8 14 21 20 45 20 24 0 37 -6 45 -20z"/>
<path d="M3536 469 c-34 -27 -37 -98 -6 -129 24 -24 73 -26 95 -4 22 23 11 29
-17 10 -30 -21 -44 -20 -68 4 -39 39 -14 120 37 120 15 0 35 -7 45 -17 10 -9
18 -11 18 -5 0 14 -40 42 -61 42 -9 0 -28 -9 -43 -21z"/>
</g>
</svg>
