<svg width="231" height="141" viewBox="0 0 231 141" fill="none" xmlns="http://www.w3.org/2000/svg">
<g filter="url(#filter0_d_124_345)">
<path d="M224.516 49.2923L195.16 50.0797C194.854 47.98 194.026 46.1208 192.675 44.5023C191.324 42.84 189.559 41.5495 187.379 40.6309C185.243 39.6685 182.759 39.1873 179.926 39.1873C176.221 39.1873 173.061 39.931 170.446 41.4183C167.874 42.9056 166.61 44.9179 166.654 47.455C166.61 49.4236 167.394 51.1296 169.007 52.5732C170.664 54.0167 173.606 55.176 177.834 56.0509L197.186 59.7254C207.211 61.6502 214.665 64.8436 219.547 69.3055C224.472 73.7675 226.956 79.673 227 87.0221C226.956 93.9337 224.908 99.9486 220.854 105.067C216.844 110.185 211.352 114.166 204.378 117.009C197.404 119.809 189.428 121.209 180.449 121.209C166.109 121.209 154.798 118.256 146.516 112.35C138.278 106.401 133.571 98.4394 132.394 88.4657L163.973 87.6783C164.67 91.3528 166.479 94.1525 169.4 96.0772C172.32 98.002 176.047 98.9644 180.58 98.9644C184.677 98.9644 188.011 98.1988 190.583 96.6678C193.155 95.1367 194.462 93.1026 194.506 90.5654C194.462 88.2907 193.46 86.4753 191.498 85.1192C189.537 83.7194 186.464 82.6257 182.28 81.8383L164.757 78.4919C154.689 76.6546 147.192 73.2644 142.266 68.3212C137.341 63.3344 134.9 56.9914 134.944 49.2923C134.9 42.5556 136.687 36.8032 140.305 32.0351C143.923 27.2231 149.066 23.5486 155.735 21.0114C162.404 18.4742 170.271 17.2056 179.337 17.2056C192.937 17.2056 203.659 20.0709 211.505 25.8014C219.35 31.4882 223.687 39.3185 224.516 49.2923Z" fill="#EEEEEE"/>
<path fill-rule="evenodd" clip-rule="evenodd" d="M116.124 0.0339271C116.124 0.0339271 140.321 -2.20673 127.858 29.7303L127.155 29.0294C127.155 29.0294 137.553 3.58931 115.568 3.58931C101.689 3.58931 85.6222 14.8182 85.6222 14.8182C85.6222 14.8182 131.1 22.2154 127.496 73.6891L126.94 81.0863C126.94 81.0863 116.404 119.71 72.0228 119.71C61.4919 119.71 57.6078 118.871 57.6078 118.871C57.6078 118.871 39.589 133 21.8251 133C4.08672 133 2.41483 113.954 4.92267 105.462C5.04542 105.043 5.18641 104.544 5.3486 103.969C8.47306 92.8922 19.4664 53.92 59.5549 26.8758V24.9574C59.5549 24.9574 30.9849 36.7439 10.4787 65.7547C10.4787 65.7547 9.63762 37.5419 34.869 21.6527C58.0257 7.82507 81.1825 13.9997 81.1825 13.9997C81.1825 13.9997 100.598 0.0339271 116.124 0.0339271ZM70.6522 93.6911C84.7868 93.6911 87.5546 81.0861 87.5546 81.0861L87.9675 56.1575C87.9675 56.1575 88.6862 38.9536 70.5452 38.9536C51.7669 38.9536 52.2257 56.1575 52.2257 56.1575L52.3327 73.6889C52.3327 73.6889 51.2164 93.6911 70.6522 93.6911ZM55.3863 118.307C55.3863 118.307 28.3097 134.534 16.1426 123.284C9.65383 112.03 20.2204 96.105 20.2204 96.105L34.5834 109.134L55.3863 118.307Z" fill="#EEEEEE"/>
</g>
<defs>
<filter id="filter0_d_124_345" x="0" y="0" width="231" height="141" filterUnits="userSpaceOnUse" color-interpolation-filters="sRGB">
<feFlood flood-opacity="0" result="BackgroundImageFix"/>
<feColorMatrix in="SourceAlpha" type="matrix" values="0 0 0 0 0 0 0 0 0 0 0 0 0 0 0 0 0 0 127 0" result="hardAlpha"/>
<feOffset dy="4"/>
<feGaussianBlur stdDeviation="2"/>
<feComposite in2="hardAlpha" operator="out"/>
<feColorMatrix type="matrix" values="0 0 0 0 0 0 0 0 0 0 0 0 0 0 0 0 0 0 0.25 0"/>
<feBlend mode="normal" in2="BackgroundImageFix" result="effect1_dropShadow_124_345"/>
<feBlend mode="normal" in="SourceGraphic" in2="effect1_dropShadow_124_345" result="shape"/>
</filter>
</defs>
</svg>
